<?xml version="1.0" standalone="no"?>
<!DOCTYPE svg PUBLIC "-//W3C//DTD SVG 20010904//EN"
 "http://www.w3.org/TR/2001/REC-SVG-20010904/DTD/svg10.dtd">
<svg version="1.0" xmlns="http://www.w3.org/2000/svg"
 width="585.000000pt" height="585.000000pt" viewBox="0 0 585.000000 585.000000"
 preserveAspectRatio="xMidYMid meet">
<metadata>
Created by potrace 1.10, written by Peter Selinger 2001-2011
</metadata>
<g transform="translate(0.000000,585.000000) scale(0.100000,-0.100000)"
fill="#c10000" stroke="none">
<path d="M3080 5340 c-83 -129 -223 -221 -590 -387 -52 -23 -88 -41 -190 -93
-71 -37 -176 -118 -225 -173 -88 -101 -162 -308 -125 -352 23 -28 182 -10 415
46 182 45 331 62 470 55 61 -3 119 -8 131 -11 17 -5 24 0 38 30 10 20 28 48
39 62 22 25 112 93 123 93 3 0 20 6 37 14 154 68 480 98 682 61 123 -22 125
-22 125 23 0 65 -60 156 -146 221 -52 40 -239 142 -284 156 -36 10 -206 94
-265 129 -74 45 -142 104 -170 149 -9 15 -21 27 -25 27 -4 0 -22 -22 -40 -50z"/>
<path d="M1343 5172 c-7 -4 -17 -32 -23 -62 -7 -30 -18 -71 -26 -90 -24 -54
-48 -104 -55 -110 -3 -3 -16 -23 -29 -45 -28 -47 -116 -163 -194 -255 -113
-135 -174 -237 -223 -375 -22 -62 -25 -286 -5 -355 34 -117 48 -158 65 -200
36 -87 81 -176 134 -263 29 -48 53 -91 53 -95 1 -4 12 -20 25 -37 19 -23 25
-26 25 -12 0 9 -4 25 -9 35 -14 28 -59 189 -85 307 -22 95 -21 262 1 334 22
73 73 151 132 201 39 33 136 87 216 120 61 25 227 64 340 80 44 6 85 16 91 23
6 7 19 41 29 77 60 213 230 419 478 580 37 23 67 44 67 46 0 8 -70 35 -115 44
-99 21 -214 29 -445 30 -129 0 -253 4 -275 9 -66 15 -159 22 -172 13z"/>
<path d="M4082 4838 c-26 -33 22 -154 66 -164 15 -4 47 -12 72 -19 25 -7 72
-21 105 -30 227 -62 247 -71 261 -121 14 -46 61 -180 74 -209 5 -11 18 -49 30
-85 11 -36 25 -74 30 -85 5 -11 18 -49 30 -85 11 -36 24 -74 29 -85 5 -11 17
-42 27 -70 23 -59 92 -118 133 -113 23 3 26 8 29 45 2 23 -2 59 -8 80 -6 21
-18 65 -26 98 -8 33 -21 87 -29 120 -9 33 -22 87 -29 120 -8 33 -22 89 -31
125 -8 36 -20 87 -25 113 -16 84 -40 125 -93 158 -27 16 -68 34 -90 39 -23 4
-67 18 -97 30 -30 12 -68 25 -85 30 -43 11 -95 30 -132 46 -17 8 -38 14 -46
14 -8 0 -28 7 -43 15 -16 8 -36 15 -45 15 -9 0 -30 7 -45 15 -35 18 -48 19
-62 3z"/>
<path d="M3865 4539 c-22 -5 -67 -14 -99 -19 -32 -6 -67 -15 -77 -20 -10 -6
-26 -10 -36 -10 -10 0 -31 -7 -47 -15 -15 -8 -33 -15 -38 -15 -6 0 -24 -6 -41
-14 -18 -8 -45 -18 -62 -23 -47 -15 -41 -35 17 -63 167 -77 363 -232 464 -365
73 -97 132 -221 162 -340 8 -34 17 -135 21 -235 l6 -175 55 -11 c111 -21 217
-78 294 -159 30 -32 88 -119 99 -147 3 -10 10 -18 14 -18 13 0 25 32 84 217
43 137 43 580 0 727 -5 17 -17 65 -26 106 -21 94 -53 210 -65 231 -5 9 -12 33
-15 53 -4 20 -11 39 -16 42 -5 3 -9 13 -9 22 0 9 -7 30 -15 46 -8 15 -15 33
-15 38 0 5 -9 28 -19 51 -21 45 -13 41 -186 87 -60 16 -391 23 -450 9z"/>
<path d="M3143 4432 c-72 -71 -208 -125 -388 -153 -33 -5 -73 -14 -90 -19 -16
-5 -55 -13 -85 -19 -135 -24 -249 -58 -347 -102 -195 -88 -321 -223 -390 -414
-53 -147 -93 -478 -63 -525 19 -31 154 125 216 251 19 37 34 77 34 88 0 11 4
22 9 25 5 4 12 25 16 49 15 100 59 258 79 286 96 128 258 198 536 232 47 5 99
14 115 19 119 35 267 33 346 -7 48 -24 114 -88 146 -142 15 -25 30 -50 34 -56
5 -5 44 -57 89 -115 281 -369 290 -383 337 -505 52 -134 62 -176 74 -318 12
-137 23 -163 42 -101 8 29 31 90 48 129 118 276 120 459 6 675 -78 148 -326
423 -555 615 -46 39 -100 85 -120 102 -21 18 -42 33 -49 33 -6 0 -24 -13 -40
-28z"/>
<path d="M1690 4243 c-153 -10 -306 -62 -459 -158 -78 -49 -78 -47 -42 -104
47 -77 67 -169 53 -245 -26 -138 -35 -299 -23 -406 6 -58 16 -109 21 -114 6
-6 10 -19 10 -29 0 -19 5 -31 54 -137 61 -131 146 -258 271 -404 93 -111 226
-248 233 -242 4 4 -29 98 -63 181 -7 17 -20 50 -30 75 -10 25 -26 63 -35 85
-93 220 -130 374 -130 542 0 154 18 237 88 403 60 141 199 354 310 472 24 26
41 51 38 57 -9 15 -198 30 -296 24z"/>
<path d="M2765 4049 c-59 -21 -155 -83 -155 -99 0 -4 24 -1 53 8 28 8 100 17
159 19 102 4 109 3 167 -26 68 -33 139 -94 152 -130 16 -40 34 -8 33 55 -2 50
-6 60 -39 94 -63 64 -127 92 -225 96 -69 4 -96 0 -145 -17z"/>
<path d="M2314 3870 c-53 -25 -60 -35 -68 -95 -15 -106 -62 -214 -212 -480
-120 -212 -174 -371 -174 -508 0 -128 15 -158 145 -296 164 -172 341 -258 571
-277 120 -9 372 33 454 75 9 5 30 12 47 15 17 4 39 16 49 27 17 19 17 22 -6
92 -20 62 -35 94 -94 202 -20 36 -125 193 -139 206 -7 8 -31 39 -52 69 -21 30
-49 66 -62 80 -12 13 -23 28 -23 31 0 3 -11 19 -25 35 -25 28 -97 130 -162
229 -39 58 -104 190 -126 255 -28 81 -37 187 -23 270 8 41 12 78 9 83 -8 13
-68 6 -109 -13z"/>
<path d="M2727 3873 c-4 -3 -7 -15 -7 -25 0 -21 -17 -49 -75 -128 -55 -72 -75
-127 -75 -200 0 -64 8 -73 33 -37 9 12 39 47 66 77 95 104 127 204 92 289 -13
31 -22 37 -34 24z"/>
<path d="M2995 3853 c-51 -13 -144 -103 -107 -103 17 0 102 32 102 39 0 3 16
15 35 25 38 21 43 31 19 40 -17 6 -18 6 -49 -1z"/>
<path d="M3255 3697 c-24 -16 -130 -43 -199 -51 -86 -10 -172 -61 -272 -161
-94 -94 -144 -154 -144 -173 0 -7 12 -14 28 -18 82 -18 189 -89 246 -163 54
-71 105 -178 146 -306 18 -55 35 -109 40 -120 4 -11 15 -47 25 -80 22 -71 77
-191 103 -223 l18 -24 55 43 c56 45 146 132 189 184 36 42 100 150 100 167 0
8 6 20 13 27 8 8 12 48 12 126 0 78 -4 118 -12 127 -7 6 -13 19 -13 27 0 22
-47 112 -112 216 -52 85 -121 213 -145 271 -7 16 -15 55 -19 87 -7 61 -20 70
-59 44z"/>
<path d="M4847 3659 c4 -24 8 -123 7 -219 0 -178 -3 -201 -51 -340 -16 -46
-19 -55 -73 -175 -18 -38 -36 -79 -40 -90 -5 -11 -18 -41 -29 -67 -12 -26 -21
-53 -21 -60 0 -8 -4 -18 -9 -23 -9 -9 -15 -27 -40 -130 -5 -22 -13 -88 -16
-148 -7 -99 -9 -108 -29 -111 -132 -27 -158 -35 -236 -80 -47 -27 -87 -52 -90
-55 -3 -4 -32 -23 -65 -43 -124 -75 -181 -100 -297 -132 -31 -9 -59 -20 -62
-25 -7 -10 123 -71 177 -83 112 -25 187 -31 264 -20 177 24 225 40 434 141
113 55 382 223 425 265 9 10 29 25 43 34 14 9 35 24 46 34 149 123 240 201
285 242 87 81 228 216 290 279 31 31 64 57 73 57 24 0 21 37 -3 43 -11 3 -20
12 -20 21 0 21 -85 187 -134 261 -66 100 -209 239 -311 302 -127 79 -315 142
-473 160 l-53 6 8 -44z"/>
<path d="M695 3389 c-177 -89 -260 -147 -366 -257 -94 -96 -149 -174 -193
-272 -16 -36 -32 -73 -37 -82 -23 -46 -79 -300 -79 -359 0 -21 -5 -41 -10 -44
-15 -9 -12 -45 4 -45 7 0 24 8 37 19 32 24 246 153 284 170 112 50 203 80 289
96 95 18 102 18 184 1 78 -16 192 -66 200 -87 10 -26 48 1 136 96 l97 104 -59
73 c-91 112 -148 201 -214 338 -33 69 -64 133 -69 142 -5 10 -9 23 -9 29 0 6
-6 25 -14 42 -8 18 -17 44 -20 60 -9 40 -44 35 -161 -24z"/>
<path d="M4138 3113 c-114 -276 -227 -452 -403 -628 -66 -66 -151 -141 -190
-167 -71 -47 -242 -138 -258 -138 -5 0 -23 -6 -40 -13 -82 -35 -256 -77 -324
-78 -32 -1 -69 -4 -83 -8 -64 -19 202 -66 375 -66 98 0 272 19 320 35 17 5 64
19 105 31 41 12 79 25 84 30 6 5 16 9 23 9 18 0 119 45 233 104 228 118 325
166 335 166 5 0 22 6 37 14 15 8 50 16 78 19 28 3 54 7 57 10 3 3 -5 22 -17
42 -30 48 -70 132 -70 146 0 6 -6 25 -13 42 -8 18 -21 57 -30 87 -9 30 -26 89
-38 130 -24 83 -26 86 -59 149 -27 53 -78 111 -97 111 -7 0 -19 -12 -25 -27z"/>
<path d="M1322 2506 c-48 -32 -122 -103 -122 -117 0 -3 -9 -16 -20 -29 -11
-13 -20 -29 -20 -35 0 -7 -7 -26 -15 -41 -17 -33 -21 -179 -5 -189 5 -3 49 1
97 10 48 8 113 15 143 15 91 -1 299 -43 383 -78 16 -7 33 -12 38 -12 5 0 17
-4 27 -9 9 -5 73 -37 142 -71 69 -34 162 -84 208 -111 45 -27 85 -49 88 -49 2
0 22 -11 44 -25 22 -14 66 -39 97 -56 32 -18 81 -44 108 -59 119 -65 321 -138
470 -172 37 -8 122 -13 225 -13 193 1 223 9 267 76 25 38 28 51 27 124 0 54
-6 92 -17 114 -9 19 -17 40 -17 47 0 25 -44 37 -189 50 -361 33 -625 86 -936
189 -44 14 -89 30 -100 35 -11 5 -45 19 -75 31 -179 70 -319 138 -525 255 -22
12 -58 32 -80 44 -22 12 -69 42 -106 66 -36 24 -69 44 -75 44 -5 0 -33 -15
-62 -34z"/>
<path d="M455 2440 c-73 -11 -157 -29 -180 -39 -62 -27 -113 -53 -135 -70
l-25 -20 90 -93 c288 -300 359 -361 500 -434 145 -74 254 -98 450 -99 216 0
401 35 653 123 63 22 60 25 -68 80 -126 53 -243 75 -365 69 -134 -7 -190 -20
-278 -68 -24 -13 -40 0 -86 71 -33 52 -35 60 -34 135 0 45 7 100 16 125 8 25
18 77 22 116 6 57 4 72 -9 83 -30 25 -418 40 -551 21z"/>
<path d="M4930 2044 c-165 -133 -352 -229 -525 -268 -92 -21 -301 -21 -387 -1
-136 33 -245 75 -340 133 -21 12 -39 22 -41 22 -2 0 -7 -50 -11 -111 -17 -278
-131 -433 -363 -493 -80 -20 -264 -21 -358 -1 -83 17 -125 19 -125 4 0 -20
120 -167 186 -228 139 -127 230 -176 469 -251 31 -10 124 -26 235 -40 85 -12
323 -11 425 0 198 23 251 30 294 39 25 6 80 17 121 26 41 9 114 25 163 37 l87
21 0 54 c0 58 23 168 46 220 8 17 14 35 14 41 0 9 35 78 75 147 44 74 85 150
111 205 14 30 31 63 36 74 5 10 16 60 24 112 14 85 14 101 0 157 -20 78 -52
147 -69 146 -6 0 -37 -20 -67 -45z"/>
<path d="M1870 1679 c-85 -42 -208 -90 -290 -112 -188 -52 -191 -52 -370 -52
-153 1 -183 4 -239 23 -35 12 -67 19 -72 16 -17 -10 -9 -63 25 -167 19 -58 39
-113 44 -123 51 -106 122 -220 165 -264 76 -79 164 -144 242 -180 28 -12 58
-26 67 -31 10 -5 34 -13 55 -18 35 -9 65 -16 183 -42 47 -10 364 -14 380 -4 9
6 0 49 -18 81 -41 73 -90 232 -116 376 -27 148 -17 307 29 462 27 90 25 91
-85 35z"/>
<path d="M2117 1575 c-3 -20 -4 -116 -1 -213 6 -208 26 -311 86 -442 78 -169
241 -329 408 -399 30 -13 64 -27 75 -32 11 -5 39 -13 63 -19 23 -5 59 -14 80
-19 106 -25 530 -19 647 9 239 59 247 62 475 174 l145 71 -300 6 c-352 8 -436
20 -620 94 -237 95 -422 270 -541 509 -24 50 -44 96 -44 103 0 21 -62 59 -135
82 -38 12 -84 29 -102 37 -17 8 -37 14 -45 14 -8 0 -17 3 -21 6 -8 8 -138 54
-153 54 -6 0 -14 -16 -17 -35z"/>
</g>
</svg>
